<mxfile host="app.diagrams.net" agent="Mozilla/5.0 (Windows NT 10.0; Win64; x64) AppleWebKit/537.36 (KHTML, like Gecko) Chrome/137.0.0.0 Safari/537.36 Edg/137.0.0.0" version="26.2.0">
  <diagram name="Page-1" id="z4uPIONmt_w_4X5Bb77L">
    <mxGraphModel grid="0" page="0" gridSize="10" guides="1" tooltips="1" connect="1" arrows="1" fold="1" pageScale="1" pageWidth="850" pageHeight="1100" math="0" shadow="0">
      <root>
        <mxCell id="0" />
        <mxCell id="1" parent="0" />
        <mxCell id="tEfzfd07eH_hHFj4BIzQ-2" value="+--------------------+&#xa;|     MasterApp      |&#xa;|--------------------|&#xa;| - aggregatedIndex: Dictionary&lt;string, Dictionary&lt;string, int&gt;&gt; |&#xa;|--------------------|&#xa;| + Main(args: string[]): void       |&#xa;| - HandlePipe(pipeName: string): void |&#xa;+--------------------+&#xa;        ^ Thread (2x)&#xa;        |&#xa;        |&#xa;Reads JSON via NamedPipeServerStream from:&#xa;        |&#xa;   +----------------+&#xa;   | Named Pipe 1   | &lt;----------------+&#xa;   +----------------+                  |&#xa;                                       |&#xa;   +----------------+       +----------------+&#xa;   |    ScannerA      |       |    ScannerB      |&#xa;   |----------------|       |----------------|&#xa;   | + Main(args: string[]): void            |&#xa;   | - ProcessFiles(pipeName, path): void    |&#xa;   |----------------|       |----------------|&#xa;   | - fileWordCounts: Dictionary&lt;string, Dictionary&lt;string, int&gt;&gt; |&#xa;   | - Uses: CPU Core 0     | - Uses: CPU Core 1     |&#xa;   | - Sends JSON via NamedPipeClientStream to Master |&#xa;   +----------------+       +----------------+" style="text;whiteSpace=wrap;" vertex="1" parent="1">
          <mxGeometry x="-101" y="2" width="697" height="767" as="geometry" />
        </mxCell>
        <mxCell id="tEfzfd07eH_hHFj4BIzQ-3" value="Text" style="text;html=1;align=center;verticalAlign=middle;whiteSpace=wrap;rounded=0;" vertex="1" parent="1">
          <mxGeometry x="174" y="375" width="60" height="30" as="geometry" />
        </mxCell>
      </root>
    </mxGraphModel>
  </diagram>
</mxfile>
